<svg width="452" height="293" viewBox="0 0 452 293" fill="none" xmlns="http://www.w3.org/2000/svg">
<path d="M412.226 292.133L399.317 253.179C399.317 253.179 413.516 267.378 413.516 279.027L410.967 252.087C410.967 252.087 418.248 261.917 417.52 276.843C416.792 291.769 412.226 292.133 412.226 292.133Z" fill="#E6E6E6"/>
<path d="M135.025 256.664L122.427 218.646C122.427 218.646 136.284 232.503 136.284 243.873L133.797 217.58C133.797 217.58 140.903 227.174 140.192 241.741C139.481 256.309 135.025 256.664 135.025 256.664Z" fill="#E6E6E6"/>
<path d="M331.654 274.207C331.675 299.216 282.074 291.523 221.35 291.576C160.626 291.628 111.775 299.406 111.753 274.397C111.731 249.388 161.315 243.906 222.039 243.854C282.763 243.802 331.632 249.199 331.654 274.207Z" fill="#E6E6E6"/>
<path d="M451.95 291.561H0V292.705H451.95V291.561Z" fill="#3F3D56"/>
<path d="M289.097 240.433H281.158L277.38 209.812H289.097V240.433Z" fill="#A0616A"/>
<path d="M274.606 238.165H290.798V247.805H265.848V246.923C265.848 244.6 266.77 242.373 268.413 240.73C270.055 239.088 272.283 238.165 274.606 238.165V238.165Z" fill="#2F2E41"/>
<path d="M347.45 285.628H339.511L335.733 255.007H347.45V285.628Z" fill="#A0616A"/>
<path d="M332.958 283.36H349.151V293H324.2V292.118C324.2 289.795 325.123 287.568 326.765 285.925C328.408 284.283 330.636 283.36 332.958 283.36V283.36Z" fill="#2F2E41"/>
<path d="M384.069 194.659C384.618 193.993 385.014 193.215 385.23 192.38C385.446 191.544 385.476 190.672 385.318 189.823C385.16 188.975 384.818 188.172 384.316 187.47C383.814 186.769 383.164 186.185 382.412 185.762L363.974 110.651L352.185 115.723L374.116 188.349C373.488 189.659 373.363 191.154 373.763 192.55C374.164 193.946 375.063 195.147 376.29 195.925C377.517 196.703 378.986 197.003 380.42 196.77C381.854 196.536 383.152 195.785 384.069 194.659V194.659Z" fill="#A0616A"/>
<path d="M369.688 42.8574C369.03 42.1695 368.23 41.6343 367.342 41.2894C366.455 40.9445 365.503 40.7983 364.553 40.8611C363.603 40.924 362.679 41.1943 361.844 41.6532C361.01 42.112 360.287 42.7481 359.725 43.5168L331.187 46.7932L335.528 57.801L361.482 52.9434C362.836 53.8014 364.458 54.1329 366.039 53.8752C367.621 53.6176 369.054 52.7886 370.065 51.5454C371.077 50.3021 371.597 48.731 371.528 47.1298C371.458 45.5286 370.804 44.0084 369.688 42.8574V42.8574Z" fill="#A0616A"/>
<path d="M322.658 186.869L335.112 280.334L350.611 277.142C350.611 277.142 348.332 209.074 356.082 200.869C363.832 192.663 346.114 178.288 346.114 178.288L322.658 186.869Z" fill="#2F2E41"/>
<path d="M327.806 161.125L322.085 169.706C322.085 169.706 278.035 151.4 278.035 180.576C278.035 209.752 275.514 229.552 274.602 230.92C273.69 232.287 285.15 235.836 290.621 234.925C290.621 234.925 297.369 187.888 296.914 185.153C296.914 185.153 340.125 206.339 348.331 204.516C356.537 202.692 358.476 196.237 359.843 192.59C361.211 188.943 359.271 159.981 359.271 159.981L331.92 151.634L327.806 161.125Z" fill="#2F2E41"/>
<path d="M328.579 109.603L326.948 107.646C326.948 107.646 308.685 66.5537 315.86 55.4654C323.034 44.377 354.343 42.7464 355.321 43.3986C356.3 44.0509 352.984 52.5193 355.267 56.4329C355.267 56.4329 331.014 61.6911 329.383 62.3433C327.753 62.9956 341.95 87.0997 341.95 87.0997L340.319 101.775L328.579 109.603Z" fill="#CCCCCC"/>
<path d="M360.54 89.3826C360.54 89.3826 343.581 91.3393 342.929 91.3393C342.276 91.3393 341.95 87.0997 341.95 87.0997L326.948 107.646C326.948 107.646 319.558 167.252 321.514 166.274C323.471 165.295 359.561 170.914 359.887 168.305C360.214 165.696 359.561 152.651 360.54 151.999C361.518 151.347 377.498 110.907 377.498 110.907C377.498 110.907 375.868 102.428 370.323 99.4925C364.779 96.5574 360.54 89.3826 360.54 89.3826Z" fill="#CCCCCC"/>
<path d="M372.28 105.363L377.498 110.907C377.498 110.907 385.251 174.615 381.011 176.571C376.771 178.528 368.425 178.288 368.425 178.288L360.213 148.086L372.28 105.363Z" fill="#CCCCCC"/>
<path d="M344.243 85.3481C352.534 85.3481 359.254 78.6275 359.254 70.3372C359.254 62.0469 352.534 55.3262 344.243 55.3262C335.953 55.3262 329.232 62.0469 329.232 70.3372C329.232 78.6275 335.953 85.3481 344.243 85.3481Z" fill="#A0616A"/>
<path d="M340.721 72.6795C340.518 69.5648 336.588 69.458 333.467 69.4286C330.346 69.3991 326.615 69.5105 324.848 66.9369C323.681 65.2361 323.904 62.8748 324.868 61.0513C325.833 59.2278 327.419 57.8253 328.979 56.4761C333.007 52.9928 337.159 49.537 341.995 47.3075C346.832 45.0779 352.499 44.177 357.515 45.9668C363.676 48.1653 372.005 59.4829 372.725 65.9852C373.444 72.4875 370.845 79.116 366.465 83.975C362.085 88.8339 352.059 86.8735 345.749 88.602C349.585 83.1731 347.057 73.3086 340.912 70.7735L340.721 72.6795Z" fill="#2F2E41"/>
<path d="M206.937 266.847C226.839 266.847 242.972 250.714 242.972 230.812C242.972 210.91 226.839 194.777 206.937 194.777C187.035 194.777 170.901 210.91 170.901 230.812C170.901 250.714 187.035 266.847 206.937 266.847Z" fill="#E74C3C"/>
<path d="M182.871 192.216C177.877 192.216 172.99 190.769 168.801 188.049C164.612 185.33 161.302 181.454 159.27 176.892L102.088 48.1195C100.194 43.8539 99.1922 39.246 99.1444 34.579C99.0965 29.912 100.004 25.2846 101.81 20.981C103.616 16.6775 106.284 12.7889 109.648 9.55416C113.013 6.31943 117.003 3.80695 121.374 2.17116C125.746 0.53536 130.405 -0.189195 135.067 0.0420347C139.728 0.273265 144.293 1.45539 148.481 3.51575C152.669 5.57611 156.391 8.47118 159.419 12.023C162.447 15.5748 164.716 19.7083 166.088 24.1695L207.494 158.846C208.68 162.701 208.944 166.78 208.267 170.756C207.59 174.732 205.99 178.493 203.596 181.739C201.201 184.984 198.079 187.622 194.479 189.442C190.88 191.262 186.904 192.212 182.871 192.216H182.871Z" fill="#E74C3C"/>
</svg>
